<svg xmlns="http://www.w3.org/2000/svg" viewBox="0 0 32 32" width="32" height="32" shape-rendering="crispEdges"><rect x="7" y="7" width="2" height="2" fill="#b366ff"></rect><rect x="9" y="7" width="2" height="2" fill="#b366ff"></rect><rect x="21" y="7" width="2" height="2" fill="#b366ff"></rect><rect x="23" y="7" width="2" height="2" fill="#b366ff"></rect><rect x="7" y="9" width="2" height="2" fill="#b366ff"></rect><rect x="9" y="9" width="2" height="2" fill="#b366ff"></rect><rect x="19" y="9" width="2" height="2" fill="#b366ff"></rect><rect x="21" y="9" width="2" height="2" fill="#b366ff"></rect><rect x="7" y="11" width="2" height="2" fill="#b366ff"></rect><rect x="9" y="11" width="2" height="2" fill="#b366ff"></rect><rect x="17" y="11" width="2" height="2" fill="#b366ff"></rect><rect x="19" y="11" width="2" height="2" fill="#b366ff"></rect><rect x="7" y="13" width="2" height="2" fill="#b366ff"></rect><rect x="9" y="13" width="2" height="2" fill="#b366ff"></rect><rect x="15" y="13" width="2" height="2" fill="#b366ff"></rect><rect x="17" y="13" width="2" height="2" fill="#b366ff"></rect><rect x="7" y="15" width="2" height="2" fill="#b366ff"></rect><rect x="9" y="15" width="2" height="2" fill="#b366ff"></rect><rect x="11" y="15" width="2" height="2" fill="#b366ff"></rect><rect x="13" y="15" width="2" height="2" fill="#b366ff"></rect><rect x="15" y="15" width="2" height="2" fill="#b366ff"></rect><rect x="7" y="17" width="2" height="2" fill="#b366ff"></rect><rect x="9" y="17" width="2" height="2" fill="#b366ff"></rect><rect x="15" y="17" width="2" height="2" fill="#b366ff"></rect><rect x="17" y="17" width="2" height="2" fill="#b366ff"></rect><rect x="7" y="19" width="2" height="2" fill="#b366ff"></rect><rect x="9" y="19" width="2" height="2" fill="#b366ff"></rect><rect x="17" y="19" width="2" height="2" fill="#b366ff"></rect><rect x="19" y="19" width="2" height="2" fill="#b366ff"></rect><rect x="7" y="21" width="2" height="2" fill="#b366ff"></rect><rect x="9" y="21" width="2" height="2" fill="#b366ff"></rect><rect x="19" y="21" width="2" height="2" fill="#b366ff"></rect><rect x="21" y="21" width="2" height="2" fill="#b366ff"></rect><rect x="7" y="23" width="2" height="2" fill="#b366ff"></rect><rect x="9" y="23" width="2" height="2" fill="#b366ff"></rect><rect x="21" y="23" width="2" height="2" fill="#b366ff"></rect><rect x="23" y="23" width="2" height="2" fill="#b366ff"></rect></svg>