<svg xmlns="http://www.w3.org/2000/svg" viewBox="0 0 32 32" width="32" height="32" shape-rendering="crispEdges"><rect x="2.5" y="2.5" width="3" height="3" fill="#b366ff"></rect><rect x="5.5" y="2.5" width="3" height="3" fill="#b366ff"></rect><rect x="23.5" y="2.5" width="3" height="3" fill="#b366ff"></rect><rect x="26.5" y="2.5" width="3" height="3" fill="#b366ff"></rect><rect x="2.5" y="5.5" width="3" height="3" fill="#b366ff"></rect><rect x="5.5" y="5.5" width="3" height="3" fill="#b366ff"></rect><rect x="20.5" y="5.5" width="3" height="3" fill="#b366ff"></rect><rect x="23.5" y="5.5" width="3" height="3" fill="#b366ff"></rect><rect x="2.5" y="8.5" width="3" height="3" fill="#b366ff"></rect><rect x="5.5" y="8.5" width="3" height="3" fill="#b366ff"></rect><rect x="17.5" y="8.5" width="3" height="3" fill="#b366ff"></rect><rect x="20.5" y="8.5" width="3" height="3" fill="#b366ff"></rect><rect x="2.5" y="11.5" width="3" height="3" fill="#b366ff"></rect><rect x="5.5" y="11.5" width="3" height="3" fill="#b366ff"></rect><rect x="14.5" y="11.5" width="3" height="3" fill="#b366ff"></rect><rect x="17.5" y="11.5" width="3" height="3" fill="#b366ff"></rect><rect x="2.5" y="14.5" width="3" height="3" fill="#b366ff"></rect><rect x="5.5" y="14.5" width="3" height="3" fill="#b366ff"></rect><rect x="8.5" y="14.5" width="3" height="3" fill="#b366ff"></rect><rect x="11.5" y="14.5" width="3" height="3" fill="#b366ff"></rect><rect x="14.5" y="14.5" width="3" height="3" fill="#b366ff"></rect><rect x="2.5" y="17.5" width="3" height="3" fill="#b366ff"></rect><rect x="5.5" y="17.5" width="3" height="3" fill="#b366ff"></rect><rect x="14.5" y="17.5" width="3" height="3" fill="#b366ff"></rect><rect x="17.5" y="17.5" width="3" height="3" fill="#b366ff"></rect><rect x="2.5" y="20.5" width="3" height="3" fill="#b366ff"></rect><rect x="5.5" y="20.5" width="3" height="3" fill="#b366ff"></rect><rect x="17.5" y="20.5" width="3" height="3" fill="#b366ff"></rect><rect x="20.5" y="20.5" width="3" height="3" fill="#b366ff"></rect><rect x="2.5" y="23.5" width="3" height="3" fill="#b366ff"></rect><rect x="5.5" y="23.5" width="3" height="3" fill="#b366ff"></rect><rect x="20.5" y="23.5" width="3" height="3" fill="#b366ff"></rect><rect x="23.5" y="23.5" width="3" height="3" fill="#b366ff"></rect><rect x="2.5" y="26.5" width="3" height="3" fill="#b366ff"></rect><rect x="5.5" y="26.5" width="3" height="3" fill="#b366ff"></rect><rect x="23.5" y="26.5" width="3" height="3" fill="#b366ff"></rect><rect x="26.5" y="26.5" width="3" height="3" fill="#b366ff"></rect></svg>